<?xml version="1.0"?>
<svg xmlns="http://www.w3.org/2000/svg" viewBox="0 0 512 512" width="512" height="512"><g id="outline"><circle cx="288" cy="256" r="16"/><circle cx="320" cy="224" r="16"/><path d="M240,288H224a8,8,0,0,0,0,16h16a8,8,0,0,0,0-16Z"/><path d="M288,288H272a8,8,0,0,0,0,16h16a8,8,0,0,0,0-16Z"/><path d="M56.845,140.422a8,8,0,1,0,14.31,7.156A20.833,20.833,0,0,1,89.889,136H96a8,8,0,0,0,0-16H89.889A36.744,36.744,0,0,0,56.845,140.422Z"/><path d="M80,96H73.889a36.744,36.744,0,0,0-33.044,20.422,8,8,0,1,0,14.31,7.156A20.833,20.833,0,0,1,73.889,112H80a8,8,0,0,0,0-16Z"/><path d="M416,120a8,8,0,0,0,0,16h6.111a20.833,20.833,0,0,1,18.734,11.578,8,8,0,1,0,14.31-7.156A36.744,36.744,0,0,0,422.111,120Z"/><path d="M438.111,112a20.833,20.833,0,0,1,18.734,11.578,8,8,0,1,0,14.31-7.156A36.744,36.744,0,0,0,438.111,96H432a8,8,0,0,0,0,16Z"/><path d="M18.343,365.657l56,56A8,8,0,0,0,80,424q.328,0,.66-.027a8,8,0,0,0,5.85-3.323L106.974,392h33.171a56.125,56.125,0,0,0,48.622-28.216l14.147-24.76A6.016,6.016,0,0,1,208.125,336h95.75a6.014,6.014,0,0,1,5.21,3.023l14.148,24.761A56.125,56.125,0,0,0,371.855,392h33.171l20.464,28.65a8,8,0,0,0,5.85,3.323q.332.027.66.027a8,8,0,0,0,5.657-2.343l56-56a8,8,0,0,0,1-10.095L464,309.578V226.255a39.774,39.774,0,0,0-7.451-23.25L432.081,168.75A40.077,40.077,0,0,0,399.532,152H362a25.921,25.921,0,0,0-18.735,8H320a16.019,16.019,0,0,0-16,16v8H285.766l-6.176-18.53A8,8,0,0,0,272,160H240a8,8,0,0,0-7.59,5.47L226.234,184H208v-8a16.019,16.019,0,0,0-16-16H168.735A25.921,25.921,0,0,0,150,152H112.468a40.077,40.077,0,0,0-32.549,16.75L55.451,203.005A39.774,39.774,0,0,0,48,226.255v83.323L17.344,355.562A8,8,0,0,0,18.343,365.657ZM371.855,376a40.085,40.085,0,0,1-34.729-20.155l-14.149-24.761A22.052,22.052,0,0,0,303.875,320h-95.75a22.054,22.054,0,0,0-19.1,11.085l-14.148,24.761A40.086,40.086,0,0,1,140.145,376H118.4l6.665-9.332a51.715,51.715,0,0,0,31.738-37.906l2.563-12.818,15.661-15.66A30.9,30.9,0,0,0,178.6,296H200a8,8,0,0,0,8-8v-8h8a8,8,0,0,0,8-8V240a8,8,0,0,0-8-8h-8v-8a8,8,0,0,0-8-8H168a8,8,0,0,0-8,8v8h-8a8,8,0,0,0-8,8v9.063a30.7,30.7,0,0,0-11.195,5.648L112,271.355V226.667L132,200H380l20,26.667v44.688L379.2,254.711a30.722,30.722,0,0,0-12.991-6.058A15.994,15.994,0,0,0,336,256a16.255,16.255,0,0,0,.12,1.883,30.536,30.536,0,0,0-7.814,16.461,16,16,0,1,0,5.333,21.99,30.938,30.938,0,0,0,3.331,3.95l15.661,15.66,2.563,12.817a51.715,51.715,0,0,0,31.738,37.907L393.6,376ZM200,248h8v16h-8a8,8,0,0,0-8,8v8h-8.033c.02-.456.033-.913.033-1.373a30.676,30.676,0,0,0-24-29.9V248h8a8,8,0,0,0,8-8v-8h16v8A8,8,0,0,0,200,248Zm199.532-80a24.049,24.049,0,0,1,19.53,10.05l24.467,34.256A23.86,23.86,0,0,1,448,226.255V312a8,8,0,0,0,1.344,4.438l28.362,42.542-44.685,44.686L398.51,355.35a7.993,7.993,0,0,0-3.981-2.939,35.669,35.669,0,0,1-23.645-26.787l-3.039-15.193a8.008,8.008,0,0,0-2.188-4.088l-17.373-17.372A14.628,14.628,0,0,1,358.627,264h1.435a14.679,14.679,0,0,1,9.139,3.206L403,294.247A8,8,0,0,0,416,288V224a8,8,0,0,0-1.6-4.8l-24-32A8,8,0,0,0,384,184H352v-6a10.011,10.011,0,0,1,10-10ZM320,176h16.084c-.05.661-.084,1.326-.084,2v6H320Zm-74.234,0h20.468l2.666,8H243.1ZM192,176v8H176v-6c0-.674-.034-1.339-.084-2ZM62.656,316.438A8,8,0,0,0,64,312V226.255a23.865,23.865,0,0,1,4.471-13.95L92.938,178.05A24.049,24.049,0,0,1,112.468,168H150a10.011,10.011,0,0,1,10,10v6H128a8,8,0,0,0-6.4,3.2l-24,32A8,8,0,0,0,96,224v64a8,8,0,0,0,13,6.247l33.8-27.041A14.679,14.679,0,0,1,151.938,264h1.435a14.628,14.628,0,0,1,10.343,24.971l-17.373,17.372a8.008,8.008,0,0,0-2.188,4.088l-3.039,15.193a35.669,35.669,0,0,1-23.645,26.787,7.993,7.993,0,0,0-3.981,2.939L78.979,403.666,34.294,358.98Z"/></g></svg>
