<svg height="512" viewBox="0 0 512 512" width="512"
  xmlns="http://www.w3.org/2000/svg">
  <g id="filled_outline" data-name="filled outline">
    <path d="m80 288h352v72h-352z" fill="#fdfefb"/>
    <path d="m80 360h-19.351a20.649 20.649 0 0 1 -20.649-20.649 20.646 20.646 0 0 1 1.06-6.53l6.94-20.821v-24h32z" fill="#533222"/>
    <path d="m80 336h352v24h-352z" fill="#cbcbcb"/>
    <g fill="#5d70b3">
      <path d="m112 288h32v48h-32z"/>
      <path d="m176 288h32v48h-32z"/>
      <path d="m240 288h32v48h-32z"/>
    </g>
    <path d="m176 336h32v24h-32z" fill="#49588d"/>
    <path d="m240 336h32v24h-32z" fill="#49588d"/>
    <path d="m304 288h32v48h-32z" fill="#5d70b3"/>
    <path d="m368 288h32v48h-32z" fill="#5d70b3"/>
    <path d="m304 336h32v24h-32z" fill="#49588d"/>
    <path d="m368 336h32v24h-32z" fill="#49588d"/>
    <path d="m112 336h32v24h-32z" fill="#49588d"/>
    <path d="m80 208h352v80h-352z" fill="#533222"/>
    <path d="m464 288h-416l32-32h352z" fill="#683b0d"/>
    <path d="m432 360h19.351a20.649 20.649 0 0 0 20.649-20.649 20.646 20.646 0 0 0 -1.06-6.53l-6.94-20.821v-24h-32z" fill="#533222"/>
    <path d="m64 360v24l16 8h344l24-8v-24z" fill="#683b0d"/>
    <path d="m88 392h32v96h-32z" fill="#533222"/>
    <path d="m392 392h32v96h-32z" fill="#533222"/>
    <path d="m286.96 83.84a79 79 0 0 0 -76.641-59.84h-51.319a79 79 0 0 0 -79 79v105h352v-13.994a74.005 74.005 0 0 0 -74.006-74.006h-24.721a47.739 47.739 0 0 1 -46.313-36.16z" fill="#683b0d"/>
    <path d="m449.131 24.081-56-8a8 8 0 0 0 -9.131 7.919v24h-8a24 24 0 1 0 24 24v-38.776l40 5.714v17.062h-8a24 24 0 1 0 24 24v-48a8 8 0 0 0 -6.869-7.919z" fill="#d8595a"/>
    <path d="m160 112a8 8 0 0 1 -8-8v-32a8 8 0 0 1 9.94-7.761l32 8a8 8 0 1 1 -3.88 15.522l-22.06-5.515v21.754a8 8 0 0 1 -8 8z" fill="#fbb540"/>
    <path d="m144 144a24 24 0 0 1 0-48h16a8 8 0 0 1 8 8v16a24.027 24.027 0 0 1 -24 24z" fill="#fbb540"/>
    <path d="m88 456h32v32h-32z" fill="#683b0d"/>
    <path d="m392 456h32v32h-32z" fill="#683b0d"/>
    <path d="m265.94 128.239-25.94-6.485v-7.508l22.06 5.515a8 8 0 0 0 3.88-15.522l-32-8a8 8 0 0 0 -9.94 7.761v32h-8a24 24 0 1 0 24 24v-21.754l22.06 5.515a8 8 0 0 0 3.88-15.522z" fill="#0bafea"/>
    <path d="m64 360h384v16h-384z" fill="#533222"/>
    <path d="m480 339.351a28.614 28.614 0 0 0 -1.47-9.059l-6.53-19.592v-21.7c0-.19-.015-.381-.028-.571a7.986 7.986 0 0 0 -2.315-6.086l-29.657-29.656v-58.682a82.1 82.1 0 0 0 -82-82h-24.727a39.682 39.682 0 0 1 -38.552-30.1 86.875 86.875 0 0 0 -84.4-65.9h-51.321a87.1 87.1 0 0 0 -87 87v149.682l-29.657 29.656a7.99 7.99 0 0 0 -2.273 6.616 8.807 8.807 0 0 0 -.07 1.041v20.7l-6.53 19.59a28.646 28.646 0 0 0 22.53 37.327v16.383a8 8 0 0 0 4.422 7.155l16 8a7.994 7.994 0 0 0 3.578.845v88a8 8 0 0 0 8 8h32a8 8 0 0 0 8-8v-88h256v88a8 8 0 0 0 8 8h32a8 8 0 0 0 8-8v-90.234l18.53-6.177a8 8 0 0 0 5.47-7.589v-16.383a28.691 28.691 0 0 0 24-28.266zm-392-123.351h336v32h-336zm0-113a71.081 71.081 0 0 1 71-71h51.319a70.9 70.9 0 0 1 68.881 53.78 55.658 55.658 0 0 0 54.073 42.22h24.727a66.08 66.08 0 0 1 66 66.005v6h-336zm-4.687 161h345.374l16 16h-377.374zm324.687 88v-8h16v8zm-64 0v-8h16v8zm-64 0v-8h16v8zm-64 0v-8h16v8zm-64 0v-8h16v8zm-64 0v-8h16v8zm16-56v32h-16v-32zm64 0v32h-16v-32zm64 0v32h-16v-32zm64 0v32h-16v-32zm64 0v32h-16v-32zm32 32h-16v-32h16zm-64 0h-16v-32h16zm-64 0h-16v-32h16zm-64 0h-16v-32h16zm-64 0h-16v-32h16zm-16 16h16v8h-16zm64 0h16v8h-16zm64 0h16v8h-16zm64 0h16v8h-16zm64 0h16v8h-16zm48-16h-16v-32h16zm-376 11.351a12.618 12.618 0 0 1 .649-4l6.94-20.821a8 8 0 0 0 .411-2.53v-16h16v56h-11.351a12.663 12.663 0 0 1 -12.649-12.649zm64 140.649h-16v-16h16zm0-32h-16v-48h16zm304 0h-16v-48h16zm0 32h-16v-16h16zm24-101.766-17.3 5.766h-340.811l-9.889-4.944v-11.056h368zm11.351-26.234h-11.351v-56h16v16a8 8 0 0 0 .411 2.53l6.94 20.821a12.649 12.649 0 0 1 -12 16.649z"/>
    <path d="m376 96a24.027 24.027 0 0 0 24-24v-38.776l40 5.714v17.062h-8a24 24 0 1 0 24 24v-48a8 8 0 0 0 -6.869-7.919l-56-8a8 8 0 0 0 -9.131 7.919v24h-8a24 24 0 0 0 0 48zm64-16a8 8 0 1 1 -8-8h8zm-64-16h8v8a8 8 0 1 1 -8-8z"/>
    <path d="m199.761 81.94a8 8 0 0 0 -5.821-9.7l-32-8a8 8 0 0 0 -9.94 7.76v24h-8a24 24 0 1 0 24 24v-37.754l22.06 5.515a8 8 0 0 0 9.701-5.821zm-47.761 38.06a8 8 0 1 1 -8-8h8z"/>
    <path d="m262.06 119.761a8 8 0 0 0 3.88-15.522l-32-8a8 8 0 0 0 -9.94 7.761v32h-8a24 24 0 1 0 24 24v-21.754l22.06 5.515a8 8 0 0 0 3.88-15.522l-25.94-6.485v-7.508zm-38.06 40.239a8 8 0 1 1 -8-8h8z"/>
  </g>
</svg>