<?xml version="1.0"?>
<svg xmlns="http://www.w3.org/2000/svg" viewBox="0 0 512 512" width="512" height="512"><g id="outline"><path d="M495.258,284.634a8,8,0,0,0-4.728-4.223l-24-8a7.992,7.992,0,0,0-6.108.434l-11.986,5.993L393.1,244.256A27.973,27.973,0,0,0,378.264,240H372.31l27-60.751a8,8,0,0,0,.625-4.194c.2-.684-.126-1.588-1.076-3.171l-24-40a8,8,0,0,0-13.516-.322L348.332,151.08l-17.523-6.571a8,8,0,0,0-10.12,4.242L300.7,193.718l-30.079-8.2-3.19-12.758a27.5,27.5,0,0,0-2.179-5.781A40.216,40.216,0,0,0,280,136V114c0-.252-.015-.5-.038-.747l9.869-34.541a31.634,31.634,0,0,0-58.712-22.838l-3.172,6.342-1.214-.4a30.363,30.363,0,0,0-37.792,40.082L200,129.541V136a39.919,39.919,0,0,0,14.939,31.168l-1.44,2.161a86.314,86.314,0,0,0-9.315,18.439L155.013,288H96a8,8,0,0,0,0,16h8v80H88a8,8,0,0,0,0,16h.862A55.963,55.963,0,0,0,128,496H360a8,8,0,0,0,0-16H344V400h8a8,8,0,0,0,5.134-14.132,56.171,56.171,0,0,0,15.692-23.311l3.7,8.336,7.879,23.637A8,8,0,0,0,392,400c.436,0,49.32-8.11,49.32-8.11A8,8,0,0,0,448,384V360a8,8,0,0,0-4.422-7.155l-29.433-14.717L401.29,309.2l35.069,17.92s.009,0,.013,0a7.979,7.979,0,0,0,1.688.637l32,8a7.994,7.994,0,0,0,9.368-4.79l16-40A8,8,0,0,0,495.258,284.634ZM367.645,150.956l5.7,9.505-9.632-3.612Zm-35.4,11.181,48.992,18.372L354.8,240h-5.9c.18-.323.365-.642.532-.975a25.825,25.825,0,0,0-16.3-36.464l-16.807-4.584Zm66.209,180.091L386.58,354.106l-27.269-61.355A8,8,0,0,0,352,288H257.08l25.851-31.021L364.6,277.4a11.923,11.923,0,0,1,8.055,6.767ZM216,131.314,227.313,120H264v16a24.138,24.138,0,0,1-9.906,19.406,27.451,27.451,0,0,0-27.427.542A23.954,23.954,0,0,1,216,136ZM328.919,218a9.824,9.824,0,0,1-4.795,19.051l-76.261-17.6,18.511-18.512ZM218.47,235.05c-.861-1.72-2.044-5-2.795-10.842a65.561,65.561,0,0,1,1.782-25.4l6.782,27.128c.011.043.026.07.037.111s.019.1.034.155A8,8,0,0,0,230.2,231.8l34.723,8.013,5.106,7.659-28.345,34.014Zm18.593-27.427-7.275-25.455a11.337,11.337,0,0,1,2.075-9.783c.131-.168.279-.317.418-.477a7.95,7.95,0,0,0,1.53-1.472,11.4,11.4,0,0,1,14.73.544c.03.026.057.057.088.083a11.378,11.378,0,0,1,3.284,5.574l3.227,12.909ZM227.056,288H204.944L216,265.888ZM205.182,82.649a14.379,14.379,0,0,1,16.492-5.658l7.8,2.6a8,8,0,0,0,9.685-4.011l6.275-12.549a15.634,15.634,0,0,1,29.016,11.287L265.966,104H224a8,8,0,0,0-5.657,2.343l-7.421,7.421L203.8,95.951A14.362,14.362,0,0,1,205.182,82.649Zm-4.548,148.684a43.115,43.115,0,0,0,3.524,10.872l2.9,5.795-20,40H172.835ZM120,336H320a8,8,0,0,1,0,16H120ZM328,448H128a8,8,0,0,1,0-16H328Zm0-32H128a24,24,0,0,0,0,48H328v16H128a40,40,0,0,1,0-80H328Zm-8-32H120V368H320a24,24,0,0,0,0-48H120V304H320a40,40,0,0,1,0,80Zm112-6.777-34.572,5.762-4.275-12.824,16.427-16.427L432,364.944Zm-44.728-99.558a27.828,27.828,0,0,0-18.8-15.792L344.985,256h33.279a11.988,11.988,0,0,1,6.36,1.824l54.2,33.878-4.148,16.6-43.039-21.992c-.217-.111-.438-.207-.66-.3Zm79.894,40.88L449.7,314.179l5.168-20.669,9.745-4.873,12.807,4.269Z"/><path d="M82.343,213.657l16,16A8,8,0,0,0,104,232h16a8,8,0,0,0,5.657-2.343l16-16A8,8,0,0,0,144,208V179.266A84.664,84.664,0,0,0,168,120a56,56,0,0,0-112,0,84.664,84.664,0,0,0,24,59.266V208A8,8,0,0,0,82.343,213.657ZM128,204.687,116.687,216h-9.374L96,204.687V184h32ZM112,80a40.045,40.045,0,0,1,40,40,68.78,68.78,0,0,1-19.332,48H120V139.314l13.657-13.657a8,8,0,0,0-11.314-11.314L112,124.687l-10.343-10.344a8,8,0,0,0-11.314,11.314L104,139.314V168H91.332A68.78,68.78,0,0,1,72,120,40.045,40.045,0,0,1,112,80Z"/><path d="M112,48a8,8,0,0,0,8-8V24a8,8,0,0,0-16,0V40A8,8,0,0,0,112,48Z"/><path d="M69.072,53.646a8,8,0,1,0,13.856-8l-8-13.856a8,8,0,1,0-13.856,8Z"/><path d="M31.79,74.928l13.856,8a8,8,0,1,0,8-13.856l-13.856-8a8,8,0,0,0-8,13.856Z"/><path d="M48,112a8,8,0,0,0-8-8H24a8,8,0,0,0,0,16H40A8,8,0,0,0,48,112Z"/><path d="M45.646,141.072l-13.856,8a8,8,0,1,0,8,13.856l13.856-8a8,8,0,0,0-8-13.856Z"/><path d="M144,56.574a8,8,0,0,0,10.928-2.928l8-13.856a8,8,0,1,0-13.856-8l-8,13.856A8,8,0,0,0,144,56.574Z"/></g></svg>
